<svg width="36" height="28" viewBox="0 0 36 28" fill="none" xmlns="http://www.w3.org/2000/svg">
<path d="M6.514 23.663C6.514 24.1063 6.353 24.4517 6.031 24.699C5.709 24.9463 5.275 25.07 4.729 25.07C4.449 25.07 4.19 25.049 3.952 25.007C3.714 24.965 3.51567 24.9067 3.357 24.832V24.23C3.525 24.3047 3.73267 24.3723 3.98 24.433C4.232 24.4937 4.491 24.524 4.757 24.524C5.13033 24.524 5.41033 24.4517 5.597 24.307C5.78833 24.1623 5.884 23.9663 5.884 23.719C5.884 23.5557 5.849 23.418 5.779 23.306C5.709 23.194 5.58767 23.0913 5.415 22.998C5.247 22.9 5.01133 22.7973 4.708 22.69C4.28333 22.536 3.96133 22.347 3.742 22.123C3.52733 21.899 3.42 21.5933 3.42 21.206C3.42 20.94 3.48767 20.7137 3.623 20.527C3.75833 20.3357 3.945 20.1887 4.183 20.086C4.42567 19.9833 4.70333 19.932 5.016 19.932C5.29133 19.932 5.54333 19.9577 5.772 20.009C6.00067 20.0603 6.20833 20.128 6.395 20.212L6.199 20.751C6.02633 20.6763 5.83733 20.6133 5.632 20.562C5.43133 20.5107 5.22133 20.485 5.002 20.485C4.68933 20.485 4.45367 20.5527 4.295 20.688C4.13633 20.8187 4.057 20.9937 4.057 21.213C4.057 21.381 4.092 21.521 4.162 21.633C4.232 21.745 4.34633 21.8453 4.505 21.934C4.66367 22.0227 4.87833 22.1183 5.149 22.221C5.443 22.3283 5.69033 22.445 5.891 22.571C6.09633 22.6923 6.25033 22.8393 6.353 23.012C6.46033 23.1847 6.514 23.4017 6.514 23.663ZM7.7518 19.841C7.84513 19.841 7.9268 19.8737 7.9968 19.939C8.07146 19.9997 8.1088 20.0977 8.1088 20.233C8.1088 20.3637 8.07146 20.4617 7.9968 20.527C7.9268 20.5923 7.84513 20.625 7.7518 20.625C7.64913 20.625 7.5628 20.5923 7.4928 20.527C7.4228 20.4617 7.3878 20.3637 7.3878 20.233C7.3878 20.0977 7.4228 19.9997 7.4928 19.939C7.5628 19.8737 7.64913 19.841 7.7518 19.841ZM8.0528 21.248V25H7.4368V21.248H8.0528ZM11.6845 23.964C11.6845 24.328 11.5492 24.6033 11.2785 24.79C11.0078 24.9767 10.6438 25.07 10.1865 25.07C9.92515 25.07 9.69882 25.049 9.50748 25.007C9.32082 24.965 9.15515 24.9067 9.01048 24.832V24.272C9.15982 24.3467 9.33948 24.4167 9.54948 24.482C9.76415 24.5427 9.98115 24.573 10.2005 24.573C10.5132 24.573 10.7395 24.524 10.8795 24.426C11.0195 24.3233 11.0895 24.188 11.0895 24.02C11.0895 23.9267 11.0638 23.8427 11.0125 23.768C10.9612 23.6933 10.8678 23.6187 10.7325 23.544C10.6018 23.4693 10.4128 23.3853 10.1655 23.292C9.92282 23.1987 9.71515 23.1053 9.54248 23.012C9.36982 22.9187 9.23682 22.8067 9.14348 22.676C9.05015 22.5453 9.00348 22.3773 9.00348 22.172C9.00348 21.8547 9.13182 21.6097 9.38848 21.437C9.64982 21.2643 9.99048 21.178 10.4105 21.178C10.6392 21.178 10.8515 21.2013 11.0475 21.248C11.2482 21.29 11.4348 21.3507 11.6075 21.43L11.3975 21.92C11.2388 21.8547 11.0732 21.7987 10.9005 21.752C10.7278 21.7053 10.5505 21.682 10.3685 21.682C10.1165 21.682 9.92282 21.724 9.78748 21.808C9.65682 21.8873 9.59148 21.997 9.59148 22.137C9.59148 22.2397 9.62182 22.3283 9.68248 22.403C9.74315 22.473 9.84348 22.543 9.98348 22.613C10.1282 22.6783 10.3195 22.7577 10.5575 22.851C10.7955 22.9397 10.9985 23.0307 11.1665 23.124C11.3345 23.2173 11.4628 23.3317 11.5515 23.467C11.6402 23.5977 11.6845 23.7633 11.6845 23.964ZM12.0031 21.248H12.6611L13.4731 23.383C13.5431 23.5697 13.6061 23.7493 13.6621 23.922C13.7181 24.09 13.7601 24.251 13.7881 24.405H13.8161C13.8441 24.2883 13.8884 24.1367 13.9491 23.95C14.0098 23.7587 14.0728 23.5673 14.1381 23.376L14.9011 21.248H15.5661L13.9491 25.518C13.8184 25.8727 13.6481 26.155 13.4381 26.365C13.2328 26.575 12.9481 26.68 12.5841 26.68C12.4721 26.68 12.3741 26.673 12.2901 26.659C12.2061 26.6497 12.1338 26.638 12.0731 26.624V26.134C12.1244 26.1433 12.1851 26.1527 12.2551 26.162C12.3298 26.1713 12.4068 26.176 12.4861 26.176C12.7008 26.176 12.8734 26.1153 13.0041 25.994C13.1394 25.8727 13.2444 25.7117 13.3191 25.511L13.5151 25.014L12.0031 21.248ZM17.9445 21.178C18.4065 21.178 18.7775 21.339 19.0575 21.661C19.3421 21.983 19.4845 22.4683 19.4845 23.117C19.4845 23.7563 19.3421 24.2417 19.0575 24.573C18.7775 24.9043 18.4041 25.07 17.9375 25.07C17.6481 25.07 17.4078 25.0163 17.2165 24.909C17.0298 24.797 16.8828 24.6687 16.7755 24.524H16.7335C16.7428 24.6033 16.7521 24.7037 16.7615 24.825C16.7708 24.9463 16.7755 25.0513 16.7755 25.14V26.68H16.1595V21.248H16.6635L16.7475 21.759H16.7755C16.8875 21.5957 17.0345 21.458 17.2165 21.346C17.3985 21.234 17.6411 21.178 17.9445 21.178ZM17.8325 21.696C17.4498 21.696 17.1791 21.8033 17.0205 22.018C16.8665 22.2327 16.7848 22.5593 16.7755 22.998V23.117C16.7755 23.579 16.8501 23.936 16.9995 24.188C17.1535 24.4353 17.4358 24.559 17.8465 24.559C18.0751 24.559 18.2618 24.496 18.4065 24.37C18.5558 24.244 18.6655 24.0737 18.7355 23.859C18.8101 23.6397 18.8475 23.39 18.8475 23.11C18.8475 22.6807 18.7635 22.3377 18.5955 22.081C18.4321 21.8243 18.1778 21.696 17.8325 21.696ZM21.0821 21.241C21.0821 21.4277 21.0704 21.6027 21.0471 21.766H21.0891C21.2104 21.5747 21.3738 21.43 21.5791 21.332C21.7891 21.234 22.0154 21.185 22.2581 21.185C22.7154 21.185 23.0584 21.2947 23.2871 21.514C23.5158 21.7287 23.6301 22.0763 23.6301 22.557V25H23.0211V22.599C23.0211 21.997 22.7411 21.696 22.1811 21.696C21.7611 21.696 21.4718 21.815 21.3131 22.053C21.1591 22.2863 21.0821 22.6223 21.0821 23.061V25H20.4661V19.68H21.0821V21.241ZM27.9292 21.248V25H27.4252L27.3342 24.503H27.3062C27.1849 24.699 27.0169 24.8437 26.8022 24.937C26.5876 25.0257 26.3589 25.07 26.1162 25.07C25.6636 25.07 25.3229 24.9627 25.0942 24.748C24.8656 24.5287 24.7512 24.181 24.7512 23.705V21.248H25.3742V23.663C25.3742 24.2603 25.6519 24.559 26.2072 24.559C26.6226 24.559 26.9096 24.4423 27.0682 24.209C27.2316 23.9757 27.3132 23.6397 27.3132 23.201V21.248H27.9292ZM31.5634 23.964C31.5634 24.328 31.4281 24.6033 31.1574 24.79C30.8867 24.9767 30.5227 25.07 30.0654 25.07C29.8041 25.07 29.5777 25.049 29.3864 25.007C29.1997 24.965 29.0341 24.9067 28.8894 24.832V24.272C29.0387 24.3467 29.2184 24.4167 29.4284 24.482C29.6431 24.5427 29.8601 24.573 30.0794 24.573C30.3921 24.573 30.6184 24.524 30.7584 24.426C30.8984 24.3233 30.9684 24.188 30.9684 24.02C30.9684 23.9267 30.9427 23.8427 30.8914 23.768C30.8401 23.6933 30.7467 23.6187 30.6114 23.544C30.4807 23.4693 30.2917 23.3853 30.0444 23.292C29.8017 23.1987 29.5941 23.1053 29.4214 23.012C29.2487 22.9187 29.1157 22.8067 29.0224 22.676C28.9291 22.5453 28.8824 22.3773 28.8824 22.172C28.8824 21.8547 29.0107 21.6097 29.2674 21.437C29.5287 21.2643 29.8694 21.178 30.2894 21.178C30.5181 21.178 30.7304 21.2013 30.9264 21.248C31.1271 21.29 31.3137 21.3507 31.4864 21.43L31.2764 21.92C31.1177 21.8547 30.9521 21.7987 30.7794 21.752C30.6067 21.7053 30.4294 21.682 30.2474 21.682C29.9954 21.682 29.8017 21.724 29.6664 21.808C29.5357 21.8873 29.4704 21.997 29.4704 22.137C29.4704 22.2397 29.5007 22.3283 29.5614 22.403C29.6221 22.473 29.7224 22.543 29.8624 22.613C30.0071 22.6783 30.1984 22.7577 30.4364 22.851C30.6744 22.9397 30.8774 23.0307 31.0454 23.124C31.2134 23.2173 31.3417 23.3317 31.4304 23.467C31.5191 23.5977 31.5634 23.7633 31.5634 23.964Z" fill="black"/>
<path fill-rule="evenodd" clip-rule="evenodd" d="M20 1.5C18.6193 1.5 17.5 2.61929 17.5 4C17.5 5.38071 18.6193 6.5 20 6.5C21.3807 6.5 22.5 5.38071 22.5 4C22.5 2.61929 21.3807 1.5 20 1.5ZM18.5 4C18.5 3.17157 19.1716 2.5 20 2.5C20.8284 2.5 21.5 3.17157 21.5 4C21.5 4.82843 20.8284 5.5 20 5.5C19.1716 5.5 18.5 4.82843 18.5 4Z" fill="black"/>
<path d="M25.0205 6.5C28.0558 6.5 30.5 8.9602 30.5 12C30.5 15.0398 28.0558 17.5 25.0205 17.5C23.5054 17.5 21.8485 16.8143 20.166 15.7157C18.8865 14.8804 17.6221 13.8262 16.4326 12.7112C16.3078 12.8335 16.1838 12.9563 16.0607 13.0795L16.0556 13.0845L16.0505 13.0895C15.9764 13.1623 15.8865 13.2522 15.7836 13.3553L15.7227 13.4164C16.9477 14.5667 18.2679 15.6708 19.6193 16.5531C21.3685 17.6951 23.2219 18.5 25.0205 18.5C28.6126 18.5 31.5 15.5876 31.5 12C31.5 8.41239 28.6126 5.5 25.0205 5.5C23.2203 5.5 21.3662 6.31561 19.6177 7.46678C17.8616 8.62292 16.1581 10.1538 14.6481 11.6636C14.5588 11.7512 14.4573 11.8528 14.345 11.9651C13.8095 12.5008 13.0278 13.2828 12.1425 13.9858C11.6083 14.41 11.0505 14.7936 10.5037 15.0695C9.95292 15.3473 9.44425 15.5 9 15.5C7.067 15.5 5.5 13.933 5.5 12C5.5 10.067 7.067 8.5 9 8.5C9.44419 8.5 9.95279 8.65265 10.5033 8.93091C11.05 9.20722 11.6076 9.59185 12.1415 10.0181C12.6707 10.4406 13.1641 10.8937 13.5892 11.3064L13.6252 11.2704C13.741 11.1547 13.8476 11.0481 13.9443 10.9532C14.0612 10.8363 14.1795 10.7191 14.299 10.6017C13.8537 10.1691 13.3291 9.68666 12.7654 9.23661C12.2004 8.7855 11.5836 8.35645 10.9544 8.03843C10.3291 7.72235 9.66038 7.5 9 7.5C6.51472 7.5 4.5 9.51472 4.5 12C4.5 14.4853 6.51472 16.5 9 16.5C9.66032 16.5 10.3289 16.2777 10.9541 15.9623C11.583 15.645 12.1997 15.2174 12.7644 14.7689C13.7 14.0259 14.5318 13.1933 15.0644 12.6602C15.1725 12.5519 15.2684 12.456 15.3502 12.3757L15.3536 12.3724C16.8432 10.8827 18.4925 9.40485 20.1676 8.30202C21.8509 7.19379 23.507 6.5 25.0205 6.5Z" fill="black"/>
</svg>
