<svg width="36" height="20" viewBox="0 0 36 20" fill="none" xmlns="http://www.w3.org/2000/svg">
<path fill-rule="evenodd" clip-rule="evenodd" d="M20 1.5C18.6193 1.5 17.5 2.61929 17.5 4C17.5 5.38071 18.6193 6.5 20 6.5C21.3807 6.5 22.5 5.38071 22.5 4C22.5 2.61929 21.3807 1.5 20 1.5ZM18.5 4C18.5 3.17157 19.1716 2.5 20 2.5C20.8284 2.5 21.5 3.17157 21.5 4C21.5 4.82843 20.8284 5.5 20 5.5C19.1716 5.5 18.5 4.82843 18.5 4Z" fill="black"/>
<path d="M25.0205 6.5C28.0558 6.5 30.5 8.9602 30.5 12C30.5 15.0398 28.0558 17.5 25.0205 17.5C23.5054 17.5 21.8485 16.8143 20.166 15.7157C18.8865 14.8804 17.6221 13.8262 16.4326 12.7112C16.3078 12.8335 16.1838 12.9563 16.0607 13.0795L16.0556 13.0845L16.0505 13.0895C15.9764 13.1623 15.8865 13.2522 15.7836 13.3553L15.7227 13.4164C16.9477 14.5667 18.2679 15.6708 19.6193 16.5531C21.3685 17.6951 23.2219 18.5 25.0205 18.5C28.6126 18.5 31.5 15.5876 31.5 12C31.5 8.41239 28.6126 5.5 25.0205 5.5C23.2203 5.5 21.3662 6.31561 19.6177 7.46678C17.8616 8.62292 16.1581 10.1538 14.6481 11.6636C14.5588 11.7512 14.4573 11.8528 14.345 11.9651C13.8095 12.5008 13.0278 13.2828 12.1425 13.9858C11.6083 14.41 11.0505 14.7936 10.5037 15.0695C9.95292 15.3473 9.44425 15.5 9 15.5C7.067 15.5 5.5 13.933 5.5 12C5.5 10.067 7.067 8.5 9 8.5C9.44419 8.5 9.95279 8.65265 10.5033 8.93091C11.05 9.20722 11.6076 9.59185 12.1415 10.0181C12.6707 10.4406 13.1641 10.8937 13.5892 11.3064L13.6252 11.2704C13.741 11.1547 13.8476 11.0481 13.9443 10.9532C14.0612 10.8363 14.1795 10.7191 14.299 10.6017C13.8537 10.1691 13.3291 9.68666 12.7654 9.23661C12.2004 8.7855 11.5836 8.35645 10.9544 8.03843C10.3291 7.72235 9.66038 7.5 9 7.5C6.51472 7.5 4.5 9.51472 4.5 12C4.5 14.4853 6.51472 16.5 9 16.5C9.66032 16.5 10.3289 16.2777 10.9541 15.9623C11.583 15.645 12.1997 15.2174 12.7644 14.7689C13.7 14.0259 14.5318 13.1933 15.0644 12.6602C15.1725 12.5519 15.2684 12.456 15.3502 12.3757L15.3536 12.3724C16.8432 10.8827 18.4925 9.40485 20.1676 8.30202C21.8509 7.19379 23.507 6.5 25.0205 6.5Z" fill="black"/>
</svg>
