<svg width="36" height="36" viewBox="0 0 36 36" fill="none" xmlns="http://www.w3.org/2000/svg">
<path fill-rule="evenodd" clip-rule="evenodd" d="M20 9.5C18.6193 9.5 17.5 10.6193 17.5 12C17.5 13.3807 18.6193 14.5 20 14.5C21.3807 14.5 22.5 13.3807 22.5 12C22.5 10.6193 21.3807 9.5 20 9.5ZM18.5 12C18.5 11.1716 19.1716 10.5 20 10.5C20.8284 10.5 21.5 11.1716 21.5 12C21.5 12.8284 20.8284 13.5 20 13.5C19.1716 13.5 18.5 12.8284 18.5 12Z" fill="black"/>
<path d="M25.0205 14.5C28.0558 14.5 30.5 16.9602 30.5 20C30.5 23.0398 28.0558 25.5 25.0205 25.5C23.5054 25.5 21.8485 24.8143 20.166 23.7157C18.8865 22.8804 17.6221 21.8262 16.4326 20.7112C16.3078 20.8335 16.1838 20.9563 16.0607 21.0795L16.0556 21.0845L16.0505 21.0895C15.9764 21.1623 15.8865 21.2522 15.7836 21.3553L15.7227 21.4164C16.9477 22.5667 18.2679 23.6708 19.6193 24.5531C21.3685 25.6951 23.2219 26.5 25.0205 26.5C28.6126 26.5 31.5 23.5876 31.5 20C31.5 16.4124 28.6126 13.5 25.0205 13.5C23.2203 13.5 21.3662 14.3156 19.6177 15.4668C17.8616 16.6229 16.1581 18.1538 14.6481 19.6636C14.5588 19.7512 14.4573 19.8528 14.345 19.9651C13.8095 20.5008 13.0278 21.2828 12.1425 21.9858C11.6083 22.41 11.0505 22.7936 10.5037 23.0695C9.95292 23.3473 9.44425 23.5 9 23.5C7.067 23.5 5.5 21.933 5.5 20C5.5 18.067 7.067 16.5 9 16.5C9.44419 16.5 9.95279 16.6526 10.5033 16.9309C11.05 17.2072 11.6076 17.5919 12.1415 18.0181C12.6707 18.4406 13.1641 18.8937 13.5892 19.3064L13.6252 19.2704C13.741 19.1547 13.8476 19.0481 13.9443 18.9532C14.0612 18.8363 14.1795 18.7191 14.299 18.6017C13.8537 18.1691 13.3291 17.6867 12.7654 17.2366C12.2004 16.7855 11.5836 16.3565 10.9544 16.0384C10.3291 15.7224 9.66038 15.5 9 15.5C6.51472 15.5 4.5 17.5147 4.5 20C4.5 22.4853 6.51472 24.5 9 24.5C9.66032 24.5 10.3289 24.2777 10.9541 23.9623C11.583 23.645 12.1997 23.2174 12.7644 22.7689C13.7 22.0259 14.5318 21.1933 15.0644 20.6602C15.1725 20.5519 15.2684 20.456 15.3502 20.3757L15.3536 20.3724C16.8432 18.8827 18.4925 17.4049 20.1676 16.302C21.8509 15.1938 23.507 14.5 25.0205 14.5Z" fill="black"/>
</svg>
