<svg width="32" height="32" viewBox="0 0 32 32" fill="none" xmlns="http://www.w3.org/2000/svg">
<path fill-rule="evenodd" clip-rule="evenodd" d="M13.8536 17.3536C12.8595 18.3476 11.9378 19.2543 11.0137 19.9082C10.0811 20.568 9.10607 21 8 21C5.79086 21 4 19.2091 4 17C4 14.7909 5.79086 13 8 13C9.10607 13 10.0811 13.432 11.0137 14.0918C11.3572 14.3349 11.7004 14.6129 12.0471 14.9173C12.1779 15.0322 12.3092 15.1508 12.4413 15.2728C12.5549 15.3777 12.6691 15.4852 12.7839 15.5947L12.4393 15.9393C12.3372 16.0415 12.2372 16.1413 12.1392 16.2386C12.118 16.2597 12.0969 16.2806 12.0759 16.3014C11.9701 16.2005 11.8654 16.1023 11.762 16.0067C11.3038 15.5833 10.8674 15.2133 10.4361 14.9082C9.60158 14.3177 8.82667 14 8 14C6.34315 14 5 15.3431 5 17C5 18.6569 6.34315 20 8 20C8.82667 20 9.60158 19.6823 10.4361 19.0918C10.9673 18.716 11.5062 18.2418 12.084 17.6908C12.2841 17.4999 12.4889 17.2997 12.6997 17.0912C12.8341 16.9582 12.9717 16.8211 13.1113 16.6816C13.123 16.6699 13.1347 16.6582 13.1464 16.6465L13.271 16.5219C14.5347 15.2579 15.7317 14.0607 16.9285 13.1117C17.0019 13.0535 17.0753 12.9963 17.1487 12.94C17.2462 12.8653 17.3436 12.7923 17.4412 12.7211C18.0418 12.2828 18.6536 11.9066 19.2861 11.6187C20.1445 11.228 21.0411 11 22 11C25.3137 11 28 13.6863 28 17C28 20.3137 25.3137 23 22 23C20.3347 23 18.8571 22.3122 17.4412 21.2789C16.6865 20.7281 15.9355 20.0686 15.1716 19.3457C15.0894 19.2678 15.007 19.1893 14.9246 19.1101C14.6875 18.8825 14.4489 18.6493 14.2085 18.4119C14.2283 18.3922 14.2481 18.3726 14.2679 18.3529C14.3655 18.2557 14.4631 18.1583 14.5607 18.0607L14.9161 17.7053L14.9325 17.7215C15.2496 18.0344 15.5599 18.3363 15.8651 18.6251C16.5946 19.3153 17.2951 19.9303 17.9893 20.4408C18.0031 20.451 18.0169 20.4611 18.0307 20.4711C19.3555 21.438 20.6279 22 22 22C24.7614 22 27 19.7614 27 17C27 14.2386 24.7614 12 22 12C20.6279 12 19.3555 12.562 18.0307 13.5289C17.0197 14.2666 16.0049 15.2198 14.9137 16.2973C14.715 16.4935 14.5137 16.6938 14.3095 16.8978C14.2991 16.9081 14.2886 16.9186 14.2783 16.929C14.1789 17.0282 14.079 17.128 13.9782 17.2289M16.7508 11.9876C16.6683 11.9958 16.5846 12 16.5 12C15.1193 12 14 10.8807 14 9.5C14 8.11929 15.1193 7 16.5 7C17.8807 7 19 8.11929 19 9.5C19 9.98828 18.86 10.4439 18.618 10.8288C18.2418 11.4271 17.6192 11.8548 16.8926 11.9694C16.8457 11.9767 16.7985 11.9828 16.7508 11.9876ZM13.9447 17.2624L13.8536 17.3536ZM16.5 11C17.3284 11 18 10.3284 18 9.5C18 8.67157 17.3284 8 16.5 8C15.6716 8 15 8.67157 15 9.5C15 10.3284 15.6716 11 16.5 11Z" fill="white"/>
</svg>
