<svg width="32" height="32" viewBox="0 0 32 32" fill="none" xmlns="http://www.w3.org/2000/svg">
<path d="M14.5607 18.0607C14.4433 18.1781 14.3259 18.2953 14.2085 18.4119C15.3101 19.4999 16.3719 20.4986 17.4412 21.2789C18.857 22.3121 20.3346 23 22 23C25.3137 23 28 20.3137 28 17C28 13.6863 25.3137 11 22 11C20.3346 11 18.857 11.6879 17.4412 12.7211C16.072 13.7203 14.7151 15.0775 13.271 16.5219L13.1464 16.6464C12.1407 17.6522 11.2787 18.4957 10.4361 19.0918C9.60172 19.6822 8.82679 20 8 20C6.34315 20 5 18.6569 5 17C5 15.3431 6.34315 14 8 14C8.82679 14 9.60172 14.3178 10.4361 14.9082C10.9648 15.2823 11.5012 15.7537 12.0759 16.3015C12.194 16.1843 12.3151 16.0636 12.4393 15.9393L12.7839 15.5947C12.1821 15.0205 11.5984 14.5055 11.0137 14.0918C10.0813 13.4322 9.10621 13 8 13C5.79086 13 4 14.7909 4 17C4 19.2091 5.79086 21 8 21C9.10621 21 10.0813 20.5678 11.0137 19.9082C11.9378 19.2543 12.8593 18.3478 13.8536 17.3536L13.9447 17.2624C15.4167 15.7902 16.7254 14.4814 18.0307 13.5289C19.3555 12.5621 20.6279 12 22 12C24.7614 12 27 14.2386 27 17C27 19.7614 24.7614 22 22 22C20.6279 22 19.3555 21.4379 18.0307 20.4711C17.0194 19.7331 16.006 18.7812 14.9162 17.7052L14.5607 18.0607Z" fill="black"/>
<circle cx="16.5" cy="9.5" r="2" stroke="black"/>
</svg>
