<svg width="16" height="16" viewBox="0 0 16 16" fill="none" xmlns="http://www.w3.org/2000/svg">
<rect width="16" height="16" fill="white"/>
<path fill-rule="evenodd" clip-rule="evenodd" d="M7.5 4.5C7.5 4.22386 7.72386 4 8 4C8.27614 4 8.5 4.22386 8.5 4.5C8.5 4.77614 8.27614 5 8 5C7.72386 5 7.5 4.77614 7.5 4.5ZM8 3C7.17157 3 6.5 3.67157 6.5 4.5C6.5 5.32843 7.17157 6 8 6C8.82843 6 9.5 5.32843 9.5 4.5C9.5 3.67157 8.82843 3 8 3ZM11 7C12.3807 7 13.5 8.11929 13.5 9.5C13.5 10.8807 12.3807 12 11 12C10.3611 12 9.66733 11.6057 8.95376 10.9951C8.66436 10.7475 8.3938 10.485 8.13846 10.2246C8.03187 10.3361 7.9232 10.4481 7.81066 10.5607C7.69698 10.6743 7.584 10.7967 7.44622 10.9462C7.71628 11.2202 8.006 11.5002 8.3036 11.7549C9.05081 12.3943 9.98205 13 11 13C12.933 13 14.5 11.433 14.5 9.5C14.5 7.567 12.933 6 11 6C9.98205 6 9.05081 6.60571 8.3036 7.2451C7.77591 7.69664 7.27303 8.22797 6.86052 8.66381L6.86052 8.66381L6.86048 8.66385C6.68851 8.84555 6.53225 9.01064 6.39645 9.14645C6.24745 9.29545 6.09119 9.46512 5.9377 9.63179L5.9377 9.63179L5.93766 9.63183L5.93765 9.63184C5.88898 9.6847 5.84058 9.73725 5.79278 9.78875C5.58816 10.0092 5.38461 10.2214 5.17523 10.408C4.74397 10.7925 4.36237 11 4 11C3.17157 11 2.5 10.3284 2.5 9.5C2.5 8.67157 3.17157 8 4 8C4.36237 8 4.74397 8.20749 5.17523 8.59197C5.24045 8.65011 5.3051 8.71073 5.3694 8.7733C5.47521 8.65959 5.58462 8.54406 5.68934 8.43934C5.78853 8.34015 5.91513 8.20671 6.06183 8.05181C5.98974 7.98177 5.91598 7.91265 5.8407 7.84553C5.3606 7.41751 4.7422 7 4 7C2.61929 7 1.5 8.11929 1.5 9.5C1.5 10.8807 2.61929 12 4 12C4.7422 12 5.3606 11.5825 5.8407 11.1545C6.087 10.9349 6.31696 10.6939 6.5257 10.4691C6.58045 10.4101 6.63322 10.3528 6.68443 10.2972L6.68447 10.2971L6.68459 10.297L6.68464 10.297C6.83423 10.1345 6.97044 9.98666 7.10355 9.85355C7.27425 9.68285 7.45101 9.49591 7.63555 9.30074L7.63556 9.30072C8.0331 8.88028 8.46674 8.42164 8.95376 8.0049C9.66733 7.39429 10.3611 7 11 7Z" fill="black"/>
</svg>
